<?xml version="1.0" encoding="UTF-8"?>
<svg width="20px" height="20px" viewBox="0 0 20 20" version="1.1" xmlns="http://www.w3.org/2000/svg" xmlns:xlink="http://www.w3.org/1999/xlink">
    <title>email</title>
    <g id="Page-1" stroke="none" stroke-width="1" fill="none" fill-rule="evenodd">
        <g id="email" fill="#000000" fill-rule="nonzero">
            <path d="M20,9 C20,15.708 15.2422222,15.437 14.6377778,15.437 C13.9533333,15.437 13.3633333,15.304 12.8655556,15.04 C12.3677778,14.775 11.9922222,14.395 11.7366667,13.901 C11.3388889,14.402 10.8755556,14.778 10.3455556,15.029 C9.81666667,15.28 9.24222222,15.405 8.62111111,15.405 C8.04111111,15.405 7.52111111,15.291 7.06444444,15.061 C6.60666667,14.832 6.22666667,14.508 5.92444444,14.088 C5.62222222,13.67 5.40666667,13.164 5.28,12.574 C5.15333333,11.982 5.12888889,11.322 5.20888889,10.592 C5.32111111,9.675 5.54111111,8.846 5.87222222,8.105 C6.20111111,7.364 6.61111111,6.732 7.1,6.209 C7.59,5.687 8.14666667,5.284 8.77,5 C9.39555556,4.717 10.0577778,4.576 10.7577778,4.576 C13.0088889,4.576 14.1833333,5.597 14.4222222,5.747 L13.8133333,11.956 C13.7655556,12.314 13.5877778,13.707 15.0666667,13.707 C15.4566667,13.707 17.7777778,13.25 17.7777778,9 C17.7777778,8.867 18.7966667,2 10.4722222,2 C3.63444444,2 2.22222222,7.896 2.22222222,10 C2.22222222,18.388 8.12444444,18 10,18 C12.2455556,18 13.3922222,17.574 13.6466667,17.467 L14.1433333,19.292 C13.8644444,19.457 12.7544444,20 10,20 C6.59666667,20 0,19.854 0,10 C0,8.638 0.833333333,0 10.52,0 C19.7911111,0 20,7.563 20,9 Z M7.85777778,10.592 C7.77,11.537 7.86222222,12.255 8.13222222,12.746 C8.40222222,13.236 8.84111111,13.481 9.44555556,13.481 C10.6711111,13.481 11.2833333,12.045 11.4266667,11.687 L11.9277778,6.606 C11.7844444,6.563 11.1477778,6.466 10.9733333,6.466 C10.0588889,6.466 9.34777778,6.817 8.84222222,7.519 C8.33777778,8.222 8.00888889,9.246 7.85777778,10.592 Z" id="Shape"></path>
        </g>
    </g>
</svg>