<?xml version="1.0" encoding="UTF-8"?>
<svg width="18px" height="20px" viewBox="0 0 18 20" version="1.1" xmlns="http://www.w3.org/2000/svg" xmlns:xlink="http://www.w3.org/1999/xlink">
    <title>Path</title>
    <g id="Page-1" stroke="none" stroke-width="1" fill="none" fill-rule="evenodd">
        <g id="tiktok-(1)" transform="translate(-0, 0)" fill="#000000" fill-rule="nonzero">
            <path d="M9.39130435,1.11210697 C9.39130435,-0.148295803 11.2578135,-0.434942085 11.6789002,0.760792929 C11.9390156,1.49942709 12.52581,2.39657473 13.2908351,3.08396881 C14.261079,3.95575701 15.4360639,4.44526456 16.826087,4.44526456 C17.4744212,4.44526456 18,4.94269972 18,5.55631709 C18,6.16993446 17.4744212,6.66736962 16.826087,6.66736962 C14.8431962,6.66736962 13.1313772,5.97073471 11.7580037,4.76967094 L11.7391304,4.75307055 L11.7391304,14.4447373 C11.7391304,17.4822104 9.16360185,19.9501997 5.96663132,19.9992558 L5.86956522,20 C2.62787651,20 0,17.5128692 0,14.4447373 C0,11.3766054 2.62787651,8.88947469 5.86956522,8.88947469 C6.51789949,8.88947469 7.04347826,9.38690985 7.04347826,10.0005272 C7.04347826,10.6141446 6.51789949,11.1115797 5.86956522,11.1115797 C3.924539,11.1115797 2.34782609,12.6038459 2.34782609,14.4447373 C2.34782609,16.2856288 3.924539,17.7778949 5.86956522,17.7778949 C7.81463964,17.7778949 9.39130435,16.2856572 9.39130435,14.4447373 L9.39130435,1.11210697 Z" id="Path"></path>
        </g>
    </g>
</svg>