<?xml version="1.0" encoding="UTF-8"?>
<svg width="28px" height="20px" viewBox="0 0 28 20" version="1.1" xmlns="http://www.w3.org/2000/svg" xmlns:xlink="http://www.w3.org/1999/xlink">
    <title>youtube (1)</title>
    <g id="Page-1" stroke="none" stroke-width="1" fill="none" fill-rule="evenodd">
        <g id="youtube-(1)" transform="translate(0, -0)" fill-rule="nonzero">
            <path d="M13.6940041,20 C12.8869745,20 5.75120606,19.984838 3.71399035,19.4383184 C2.17595298,19.0254106 0.974589428,17.824047 0.561681599,16.2860096 C0.00551343901,14.2136458 -1.46907526e-15,10.1716058 -1.46907526e-15,10.0006892 C-1.46907526e-15,9.82977257 0.00620261888,5.7877326 0.561681599,3.71536871 C0.975769378,2.17762483 2.17693566,0.976458558 3.71467953,0.562370779 C5.75120606,0.0158511371 12.8869745,1.46907526e-15 13.6940041,1.46907526e-15 C14.5010338,1.46907526e-15 21.6368022,0.0151619573 23.6747071,0.561681599 C25.2122308,0.975478261 26.4132192,2.17646662 26.8270159,3.71399035 L26.8270159,3.71467953 L26.827705,3.71467953 C27.3824948,5.78704342 27.3880083,9.82839421 27.3880083,9.99931082 C27.3880083,10.1702274 27.3818057,14.2122674 26.8270159,16.2846313 C26.4133119,17.8228432 25.2116311,19.0242615 23.6733287,19.4376292 C21.6368022,19.9841489 14.5010338,20 13.6940041,20 L13.6940041,20 Z" id="Path" fill="#000000"></path>
            <path d="M11.5485872,14.1192281 C11.1679636,14.1192281 10.8594032,13.8106718 10.8594032,13.4300482 L10.8594032,6.57064094 C10.8585551,6.32406203 10.9897651,6.09589339 11.2033115,5.97260592 C11.416858,5.84931844 11.6800628,5.84977828 11.8931771,5.97381116 L17.8332185,9.40385941 C18.0464344,9.52697411 18.1777781,9.75448143 18.1777781,10.0006892 C18.1777781,10.2468969 18.0464344,10.4744042 17.8332185,10.597519 L11.8931771,14.0275672 C11.7881964,14.0874627 11.6694524,14.1190486 11.5485872,14.1192281 Z" id="Path" fill="#FFFFFF"></path>
        </g>
    </g>
</svg>